<svg width="24" height="24" viewBox="0 0 24 24" fill="none" xmlns="http://www.w3.org/2000/svg">
<path d="M7.46849 17.1272C7.25993 16.9187 7.24255 16.5913 7.41635 16.363L7.46849 16.3033L15.7077 8.06416C15.9352 7.83664 16.304 7.83664 16.5316 8.06416C16.7401 8.27272 16.7575 8.60006 16.5837 8.82841L16.5316 8.88807L8.29241 17.1272C8.06489 17.3548 7.69601 17.3548 7.46849 17.1272Z" fill="white"/>
<path d="M9.48878 9.07266C9.16702 9.07335 8.90562 8.81308 8.90493 8.49132C8.9043 8.19881 9.11935 7.95619 9.40019 7.91397L9.48627 7.90747L16.1182 7.89319C16.4116 7.89256 16.6547 8.10884 16.6959 8.39064L16.7021 8.47699L16.6884 15.1095C16.6877 15.4313 16.4263 15.6916 16.1046 15.6909C15.8121 15.6903 15.5703 15.4742 15.5293 15.1932L15.5232 15.1071L15.5353 9.05961L9.48878 9.07266Z" fill="white"/>
</svg>
