<svg width="60" height="60" viewBox="0 0 60 60" fill="none" xmlns="http://www.w3.org/2000/svg">
<path d="M30.0006 0C13.4303 0 0 13.4303 0 30.0006C0 46.571 13.4303 60 30.0006 60C46.571 60 60 46.5697 60 30.0006C60 13.4315 46.5697 0 30.0006 0ZM30.0006 55.0743C16.1751 55.0743 4.93082 43.8261 4.93082 30.0045C4.93082 16.1828 16.179 4.93466 30.0006 4.93466C43.8223 4.93466 55.0705 16.1828 55.0705 30.0045C55.0705 43.8261 43.8261 55.0743 30.0006 55.0743Z" fill="white"/>
<path d="M47.3352 24.4488C47.3352 24.426 47.3268 24.4056 47.3232 24.384C47.316 24.3408 47.3076 24.2988 47.2968 24.264C47.286 24.2292 47.2812 24.216 47.274 24.192C47.2668 24.168 47.25 24.1188 47.2356 24.0828C47.2212 24.0468 47.2128 24.0336 47.202 24.0096C47.1867 23.9758 47.1694 23.943 47.1504 23.9112C47.1372 23.8872 47.1228 23.8644 47.1084 23.8416C47.094 23.8188 47.0676 23.7792 47.0448 23.7504C47.022 23.7216 47.0112 23.706 46.9944 23.6856C46.9776 23.6652 46.9452 23.6304 46.9188 23.6052C46.8924 23.58 46.8804 23.5644 46.86 23.5464C46.8396 23.5284 46.8036 23.4972 46.7748 23.4744C46.746 23.4516 46.7304 23.4396 46.7076 23.424L46.68 23.4L30.7752 12.7944C30.5294 12.6306 30.2407 12.5432 29.9454 12.5432C29.65 12.5432 29.3613 12.6306 29.1156 12.7944L13.2084 23.4L13.1844 23.4192C13.1604 23.4348 13.1388 23.4528 13.1172 23.4696C13.0874 23.492 13.059 23.516 13.032 23.5416C13.0108 23.56 12.9908 23.5796 12.972 23.6004C12.9456 23.6256 12.9216 23.6532 12.8976 23.6808C12.8736 23.7084 12.8628 23.724 12.846 23.7456C12.8292 23.7672 12.8028 23.8056 12.7836 23.8368C12.7644 23.868 12.7536 23.8824 12.7404 23.9064C12.7272 23.9304 12.7056 23.9712 12.69 24.0048C12.6744 24.0384 12.666 24.0528 12.6564 24.078C12.6468 24.1032 12.63 24.15 12.618 24.1872C12.606 24.2244 12.6012 24.234 12.594 24.2592C12.5868 24.2844 12.576 24.342 12.5688 24.3792C12.5688 24.4008 12.5592 24.4212 12.5568 24.444C12.5471 24.5083 12.5423 24.5733 12.5424 24.6384V35.244C12.5423 35.3095 12.5471 35.3748 12.5568 35.4396C12.5568 35.46 12.5652 35.4828 12.5688 35.5032C12.576 35.5452 12.5832 35.5872 12.594 35.6292C12.6048 35.6712 12.6096 35.6772 12.618 35.7012C12.6264 35.7252 12.642 35.7744 12.6564 35.8116C12.6708 35.8488 12.678 35.8596 12.69 35.8836C12.702 35.9076 12.7224 35.9508 12.7404 35.9832C12.7584 36.0156 12.768 36.0288 12.7836 36.0516C12.7992 36.0744 12.8244 36.1128 12.846 36.1428C12.8676 36.1728 12.8796 36.186 12.8976 36.2076C12.9156 36.2292 12.9456 36.2628 12.972 36.288C12.9908 36.3088 13.0108 36.3284 13.032 36.3468C13.059 36.372 13.0875 36.3956 13.1172 36.4176C13.1388 36.4356 13.1604 36.4524 13.1844 36.4692C13.2084 36.486 13.2 36.4824 13.2084 36.4872L29.1156 47.0928C29.3611 47.257 29.6499 47.3447 29.9454 47.3447C30.2408 47.3447 30.5296 47.257 30.7752 47.0928L46.68 36.492L46.7052 36.474C46.728 36.4572 46.7508 36.4404 46.7724 36.4224C46.794 36.4044 46.83 36.3768 46.8576 36.3516C46.8852 36.3264 46.8972 36.3132 46.9164 36.2928C46.9356 36.2724 46.968 36.24 46.992 36.2124C47.016 36.1848 47.0268 36.1704 47.0424 36.1476C47.058 36.1248 47.0856 36.0876 47.1059 36.0564C47.1264 36.0252 47.1348 36.0108 47.148 35.988C47.1668 35.9557 47.184 35.9224 47.1996 35.8884L47.2332 35.8164C47.2476 35.7792 47.2596 35.7432 47.2716 35.706C47.2836 35.6688 47.2884 35.658 47.2944 35.634C47.3004 35.61 47.3136 35.55 47.3208 35.508C47.3208 35.4876 47.3304 35.4648 47.3328 35.4444C47.3414 35.3795 47.3458 35.3142 47.346 35.2488V24.6432C47.3466 24.5782 47.343 24.5133 47.3352 24.4488ZM31.44 16.8336L43.1592 24.6456L37.9248 28.1472L31.4448 23.8092L31.44 16.8336ZM28.4484 16.8336V23.8092L21.9684 28.1472L16.734 24.6456L28.4484 16.8336ZM15.534 27.4428L19.2756 29.946L15.534 32.4492V27.4428ZM28.4496 43.0584L16.7316 35.2464L21.966 31.746L28.446 36.0828L28.4496 43.0584ZM29.946 33.48L24.6564 29.9412L29.946 26.4024L35.2356 29.9412L29.946 33.48ZM31.44 43.0584V36.0828L37.92 31.746L43.1544 35.2464L31.44 43.0584ZM44.3556 32.4492L40.614 29.946L44.3556 27.4428V32.4492Z" fill="white"/>
</svg>
