<svg width="25" height="24" viewBox="0 0 25 24" fill="none" xmlns="http://www.w3.org/2000/svg">
<path fill-rule="evenodd" clip-rule="evenodd" d="M17.5 14.9818H15.4818V17.0001C15.4818 17.9942 14.6759 18.8001 13.6818 18.8001H7.49995C6.50584 18.8001 5.69995 17.9942 5.69995 17.0001V10.8183C5.69995 9.82414 6.50584 9.01826 7.49995 9.01826H9.51814V7.00001C9.51814 6.0059 10.324 5.20001 11.3181 5.20001H17.5C18.4941 5.20001 19.3 6.0059 19.3 7.00001V13.1818C19.3 14.1759 18.4941 14.9818 17.5 14.9818ZM15.4818 10.8183V13.8818H17.5C17.8866 13.8818 18.2 13.5684 18.2 13.1818V7.00001C18.2 6.61341 17.8866 6.30001 17.5 6.30001H11.3181C10.9315 6.30001 10.6181 6.61341 10.6181 7.00001V9.01826H13.6818C14.6759 9.01826 15.4818 9.82414 15.4818 10.8183ZM14.3818 10.8183C14.3818 10.4317 14.0684 10.1183 13.6818 10.1183H7.49995C7.11335 10.1183 6.79995 10.4317 6.79995 10.8183V17.0001C6.79995 17.3867 7.11335 17.7001 7.49995 17.7001H13.6818C14.0684 17.7001 14.3818 17.3867 14.3818 17.0001V10.8183Z" fill="white"/>
</svg>
