<svg width="18" height="18" viewBox="0 0 18 18" fill="none" xmlns="http://www.w3.org/2000/svg">
<g id="Download">
<g id="Download_2">
<g id="Vector">
<path fill-rule="evenodd" clip-rule="evenodd" d="M9.00054 14.4025C8.71074 14.4025 8.47554 14.1673 8.47554 13.8775V5.44883C8.47554 5.15903 8.71074 4.92383 9.00054 4.92383C9.29035 4.92383 9.52555 5.15903 9.52555 5.44883V13.8775C9.52555 14.1673 9.29035 14.4025 9.00054 14.4025Z" fill="#FF851A"/>
<path fill-rule="evenodd" clip-rule="evenodd" d="M9.00054 14.4025C8.86124 14.4025 8.72686 14.3472 8.62886 14.2478L6.58766 12.1989C6.38326 11.9931 6.38396 11.6606 6.58906 11.4562C6.79486 11.2518 7.12666 11.2518 7.33106 11.4576L9.00056 13.1341L10.6701 11.4576C10.8745 11.2518 11.2063 11.2518 11.4121 11.4562C11.6172 11.6606 11.6179 11.9931 11.4135 12.1989L9.37226 14.2478C9.27426 14.3472 9.13984 14.4025 9.00054 14.4025Z" fill="#FF851A"/>
<path fill-rule="evenodd" clip-rule="evenodd" d="M12.9025 17.8574H5.1045C3.393 17.8574 2 16.4651 2 14.7529V11.3334C2 9.62538 3.3895 8.23658 5.0982 8.23658H5.7569C6.0467 8.23658 6.2819 8.47178 6.2819 8.76158C6.2819 9.05138 6.0467 9.28658 5.7569 9.28658H5.0982C3.9684 9.28658 3.05 10.2043 3.05 11.3334V14.7529C3.05 15.8862 3.9712 16.8074 5.1045 16.8074H12.9025C14.0309 16.8074 14.95 15.8883 14.95 14.7599V11.3411C14.95 10.2078 14.0281 9.28658 12.8962 9.28658H12.2438C11.954 9.28658 11.7188 9.05138 11.7188 8.76158C11.7188 8.47178 11.954 8.23658 12.2438 8.23658H12.8962C14.6077 8.23658 16 9.62958 16 11.3411V14.7599C16 16.4679 14.6098 17.8574 12.9025 17.8574Z" fill="#FF851A"/>
</g>
</g>
</g>
</svg>
