<svg width="60" height="60" viewBox="0 0 60 60" fill="none" xmlns="http://www.w3.org/2000/svg">
<path d="M30 1.99219C45.4688 1.99219 57.9844 14.5078 57.9844 29.9531C57.9844 45.3984 45.4688 57.9375 30 57.9375C14.5312 57.9375 2.01562 45.4219 2.01562 29.9766C2.01562 14.5312 14.5312 1.99219 30 1.99219Z" fill="#E74D89"/>
<path d="M30 59.9297C13.4531 59.9297 0 46.5 0 29.9766C0 13.4297 13.4531 0 30 0C46.5469 0 60 13.4297 60 29.9531C60 46.4766 46.5469 59.9297 30 59.9297ZM55.2891 34.0547C54.4219 33.7734 47.3672 31.6875 39.3281 32.9531C42.6797 42.1406 44.0391 49.6406 44.2969 51.1875C50.0625 47.3203 54.1641 41.1797 55.2891 34.0547ZM40.0078 53.5547C39.6328 51.3047 38.1328 43.4766 34.5469 34.1484C34.5 34.1719 34.4297 34.1953 34.3828 34.1953C19.9219 39.2344 14.7422 49.2422 14.2734 50.1797C18.6094 53.5547 24.0703 55.5703 30 55.5703C33.5391 55.5938 36.9375 54.8672 40.0078 53.5547ZM10.9688 47.1094C11.5547 46.125 18.5859 34.5 31.8047 30.2109C32.1328 30.0937 32.4844 30 32.8125 29.9062C32.1797 28.4531 31.4766 27 30.7266 25.5703C17.9297 29.3906 5.50781 29.2266 4.38281 29.2031C4.38281 29.4609 4.35938 29.7188 4.35938 29.9766C4.38281 36.5625 6.86719 42.5625 10.9688 47.1094ZM4.92188 24.75C6.07031 24.7734 16.6172 24.8203 28.6172 21.6328C24.375 14.0859 19.7812 7.75781 19.125 6.84375C11.9297 10.2188 6.58594 16.8281 4.92188 24.75ZM24 5.10938C24.7031 6.04688 29.3672 12.375 33.5625 20.0859C42.6797 16.6641 46.5234 11.5078 46.9922 10.8516C42.4688 6.84375 36.5156 4.40625 30 4.40625C27.9375 4.40625 25.9219 4.66406 24 5.10938ZM49.8281 13.8047C49.2891 14.5312 45 20.0391 35.5312 23.9062C36.1172 25.125 36.7031 26.3672 37.2422 27.6094C37.4297 28.0547 37.6172 28.5 37.8047 28.9219C46.3359 27.8438 54.7969 29.5781 55.6406 29.7422C55.5703 23.7188 53.4141 18.1641 49.8281 13.8047Z" fill="#B2215A"/>
</svg>
