<svg width="60" height="60" viewBox="0 0 60 60" fill="none" xmlns="http://www.w3.org/2000/svg">
<path d="M59.8196 17.6312C59.6736 14.4379 59.1664 12.2571 58.4248 10.3491C57.6718 8.34732 56.4908 6.53412 54.9646 5.0354C53.4663 3.50922 51.6527 2.32773 49.6509 1.57425C47.7425 0.83313 45.5621 0.326385 42.3688 0.181274C39.1695 0.03479 38.1473 0 30 0C21.8527 0 20.8305 0.03479 17.6312 0.180359C14.4379 0.326385 12.2575 0.833588 10.3491 1.57516C8.34732 2.32819 6.53412 3.50922 5.0354 5.0354C3.50922 6.53366 2.32773 8.34686 1.57425 10.3487C0.83313 12.2571 0.326385 14.4379 0.181274 17.6308C0.03479 20.8305 0 21.8523 0 29.9995C0 38.1473 0.03479 39.1695 0.181274 42.3688C0.326843 45.5617 0.834045 47.7425 1.57562 49.6509C2.32864 51.6522 3.50967 53.4659 5.03586 54.9641C6.53412 56.4903 8.34778 57.6714 10.3496 58.4244C12.2575 59.1664 14.4383 59.6732 17.6317 59.8192C20.8315 59.9652 21.8532 59.9995 30.0005 59.9995C38.1477 59.9995 39.1699 59.9652 42.3692 59.8192C45.5626 59.6732 47.7429 59.1664 49.6513 58.4244C53.681 56.8662 56.8666 53.6806 58.4248 49.6509C59.1669 47.7425 59.6736 45.5617 59.8196 42.3688C59.9652 39.169 60 38.1473 60 30C60 21.8523 59.9652 20.8305 59.8196 17.6312ZM54.4194 42.123C54.2862 45.0481 53.7973 46.6365 53.3867 47.6935C52.3773 50.3101 50.3096 52.3778 47.693 53.3871C46.636 53.7978 45.0476 54.2867 42.1225 54.4199C38.9598 54.5645 38.0109 54.5947 30 54.5947C21.9887 54.5947 21.0402 54.5645 17.877 54.4199C14.9524 54.2867 13.364 53.7978 12.3065 53.3871C11.0037 52.906 9.82498 52.1393 8.85727 51.1427C7.86072 50.175 7.09396 48.9967 6.61285 47.6935C6.20224 46.6365 5.71335 45.0481 5.58014 42.123C5.43594 38.9598 5.40527 38.0109 5.40527 30.0005C5.40527 21.9896 5.43594 21.0411 5.58014 17.8775C5.71381 14.9524 6.20224 13.364 6.61285 12.307C7.09396 11.0037 7.86118 9.82498 8.85727 8.85727C9.82498 7.86072 11.0037 7.09396 12.307 6.61331C13.364 6.20224 14.9524 5.71381 17.8775 5.58014C21.0406 5.43594 21.9896 5.40527 30 5.40527H29.9995C38.0099 5.40527 38.9589 5.43594 42.1225 5.5806C45.0476 5.71381 46.6356 6.2027 47.693 6.61331C48.9958 7.09442 50.1746 7.86118 51.1423 8.85727C52.1388 9.82498 52.9056 11.0037 53.3862 12.307C53.7973 13.364 54.2862 14.9524 54.4194 17.8775C54.5636 21.0407 54.5943 21.9896 54.5943 30C54.5943 38.0109 54.5641 38.9594 54.4194 42.123Z" fill="url(#paint0_linear)"/>
<path d="M29.9995 14.5944C21.4915 14.5944 14.5944 21.492 14.5944 30C14.5944 38.508 21.4915 45.4051 29.9995 45.4051C38.508 45.4051 45.4051 38.508 45.4051 30C45.4051 21.492 38.508 14.5944 29.9995 14.5944ZM29.9995 39.9999C24.4771 39.9994 19.9997 35.5225 20.0002 29.9995C20.0002 24.4771 24.4771 19.9997 30 19.9997C35.5229 20.0002 39.9999 24.4771 39.9999 29.9995C39.9999 35.5225 35.5225 39.9999 29.9995 39.9999Z" fill="url(#paint1_linear)"/>
<path d="M49.6138 13.9861C49.6138 15.9741 48.002 17.5859 46.014 17.5859C44.0254 17.5859 42.4136 15.9741 42.4136 13.9861C42.4136 11.9975 44.0254 10.3857 46.014 10.3857C48.002 10.3857 49.6138 11.9975 49.6138 13.9861Z" fill="url(#paint2_linear)"/>
<defs>
<linearGradient id="paint0_linear" x1="5.0351" y1="54.9644" x2="54.9649" y2="5.03462" gradientUnits="userSpaceOnUse">
<stop stop-color="#FFD600"/>
<stop offset="0.5" stop-color="#FF0100"/>
<stop offset="1" stop-color="#D800B9"/>
</linearGradient>
<linearGradient id="paint1_linear" x1="19.1066" y1="40.893" x2="40.893" y2="19.1066" gradientUnits="userSpaceOnUse">
<stop stop-color="#FF6400"/>
<stop offset="0.5" stop-color="#FF0100"/>
<stop offset="1" stop-color="#FD0056"/>
</linearGradient>
<linearGradient id="paint2_linear" x1="43.4683" y1="16.5314" x2="48.5593" y2="11.4403" gradientUnits="userSpaceOnUse">
<stop stop-color="#F30072"/>
<stop offset="1" stop-color="#E50097"/>
</linearGradient>
</defs>
</svg>
