<svg width="60" height="60" viewBox="0 0 60 60" fill="none" xmlns="http://www.w3.org/2000/svg">
<g clip-path="url(#clip0)">
<path d="M12.8172 47.1827C9.18972 43.5552 9.18972 37.658 12.8172 34.0306L21.3025 25.5452L17.272 21.5148L8.7868 30C2.93196 35.8548 2.93186 45.3583 8.7867 51.2132C14.6415 57.068 24.1451 57.068 30 51.2132L38.4852 42.7279L34.4547 38.6974L25.9695 47.1827C22.342 50.8101 16.4446 50.8101 12.8172 47.1827Z" fill="white"/>
<path d="M36.3639 19.3934L19.3933 36.364L23.636 40.6066L40.6066 23.636L36.3639 19.3934Z" fill="white"/>
<path d="M29.9999 8.78685L21.5146 17.2721L25.5451 21.3026L34.0304 12.8173C37.6578 9.18986 43.555 9.18986 47.1825 12.8173C50.8099 16.4448 50.81 22.3421 47.1826 25.9695L38.6973 34.4548L42.7278 38.4852L51.2131 30C57.0679 24.1452 57.0679 14.6416 51.2131 8.78674C45.3582 2.9319 35.8547 2.932 29.9999 8.78685Z" fill="white"/>
</g>
<defs>
<clipPath id="clip0">
<rect width="60" height="60" fill="white"/>
</clipPath>
</defs>
</svg>
