<svg width="166" height="26" viewBox="0 0 166 26" fill="none" xmlns="http://www.w3.org/2000/svg">
<path d="M0.819336 12.304C0.819336 10.96 1.08334 9.76802 1.61134 8.72802C2.15534 7.68802 2.89134 6.88802 3.81934 6.32802C4.74734 5.76802 5.77934 5.48802 6.91534 5.48802C7.77934 5.48802 8.60334 5.68002 9.38734 6.06402C10.1713 6.43202 10.7953 6.92802 11.2593 7.55202V1.24002H14.6673V19H11.2593V17.032C10.8433 17.688 10.2593 18.216 9.50734 18.616C8.75534 19.016 7.88334 19.216 6.89134 19.216C5.77134 19.216 4.74734 18.928 3.81934 18.352C2.89134 17.776 2.15534 16.968 1.61134 15.928C1.08334 14.872 0.819336 13.664 0.819336 12.304ZM11.2833 12.352C11.2833 11.536 11.1233 10.84 10.8033 10.264C10.4833 9.67202 10.0513 9.22402 9.50734 8.92002C8.96334 8.60002 8.37934 8.44002 7.75534 8.44002C7.13134 8.44002 6.55534 8.59202 6.02734 8.89602C5.49934 9.20002 5.06734 9.64802 4.73134 10.24C4.41134 10.816 4.25134 11.504 4.25134 12.304C4.25134 13.104 4.41134 13.808 4.73134 14.416C5.06734 15.008 5.49934 15.464 6.02734 15.784C6.57134 16.104 7.14734 16.264 7.75534 16.264C8.37934 16.264 8.96334 16.112 9.50734 15.808C10.0513 15.488 10.4833 15.04 10.8033 14.464C11.1233 13.872 11.2833 13.168 11.2833 12.352Z" fill="url(#paint0_linear)"/>
<path d="M25.437 5.51202C26.445 5.51202 27.341 5.73602 28.125 6.18402C28.909 6.61602 29.517 7.26402 29.949 8.12802C30.397 8.97602 30.621 10 30.621 11.2V19H27.261V11.656C27.261 10.6 26.997 9.79202 26.469 9.23202C25.941 8.65602 25.221 8.36802 24.309 8.36802C23.381 8.36802 22.645 8.65602 22.101 9.23202C21.573 9.79202 21.309 10.6 21.309 11.656V19H17.949V1.24002H21.309V7.36002C21.741 6.78402 22.317 6.33602 23.037 6.01602C23.757 5.68002 24.557 5.51202 25.437 5.51202Z" fill="url(#paint1_linear)"/>
<path d="M35.5201 4.12002C34.9282 4.12002 34.4322 3.93602 34.0322 3.56802C33.6482 3.18402 33.4562 2.71202 33.4562 2.15202C33.4562 1.59202 33.6482 1.12802 34.0322 0.760021C34.4322 0.376021 34.9282 0.184021 35.5201 0.184021C36.1121 0.184021 36.6002 0.376021 36.9841 0.760021C37.3842 1.12802 37.5841 1.59202 37.5841 2.15202C37.5841 2.71202 37.3842 3.18402 36.9841 3.56802C36.6002 3.93602 36.1121 4.12002 35.5201 4.12002ZM37.1761 5.70402V19H33.8161V5.70402H37.1761Z" fill="url(#paint2_linear)"/>
<path d="M57.0078 5.51202C58.6398 5.51202 59.9518 6.01602 60.9438 7.02402C61.9518 8.01602 62.4558 9.40802 62.4558 11.2V19H59.0958V11.656C59.0958 10.616 58.8318 9.82402 58.3038 9.28002C57.7758 8.72002 57.0558 8.44002 56.1438 8.44002C55.2318 8.44002 54.5038 8.72002 53.9598 9.28002C53.4318 9.82402 53.1678 10.616 53.1678 11.656V19H49.8078V11.656C49.8078 10.616 49.5438 9.82402 49.0158 9.28002C48.4878 8.72002 47.7678 8.44002 46.8558 8.44002C45.9278 8.44002 45.1918 8.72002 44.6478 9.28002C44.1198 9.82402 43.8558 10.616 43.8558 11.656V19H40.4958V5.70402H43.8558V7.31202C44.2878 6.75202 44.8398 6.31202 45.5118 5.99202C46.1998 5.67202 46.9518 5.51202 47.7678 5.51202C48.8078 5.51202 49.7358 5.73602 50.5518 6.18402C51.3678 6.61602 51.9998 7.24002 52.4478 8.05602C52.8798 7.28802 53.5038 6.67202 54.3198 6.20802C55.1518 5.74402 56.0478 5.51202 57.0078 5.51202Z" fill="url(#paint3_linear)"/>
<path d="M64.7803 12.304C64.7803 10.96 65.0443 9.76802 65.5723 8.72802C66.1163 7.68802 66.8443 6.88802 67.7563 6.32802C68.6843 5.76802 69.7163 5.48802 70.8523 5.48802C71.8443 5.48802 72.7083 5.68802 73.4443 6.08802C74.1963 6.48802 74.7963 6.99202 75.2443 7.60002V5.70402H78.6283V19H75.2443V17.056C74.8123 17.68 74.2123 18.2 73.4443 18.616C72.6923 19.016 71.8203 19.216 70.8283 19.216C69.7083 19.216 68.6843 18.928 67.7563 18.352C66.8443 17.776 66.1163 16.968 65.5723 15.928C65.0443 14.872 64.7803 13.664 64.7803 12.304ZM75.2443 12.352C75.2443 11.536 75.0843 10.84 74.7643 10.264C74.4443 9.67202 74.0123 9.22402 73.4683 8.92002C72.9243 8.60002 72.3403 8.44002 71.7163 8.44002C71.0923 8.44002 70.5163 8.59202 69.9883 8.89602C69.4603 9.20002 69.0283 9.64802 68.6923 10.24C68.3723 10.816 68.2123 11.504 68.2123 12.304C68.2123 13.104 68.3723 13.808 68.6923 14.416C69.0283 15.008 69.4603 15.464 69.9883 15.784C70.5323 16.104 71.1083 16.264 71.7163 16.264C72.3403 16.264 72.9243 16.112 73.4683 15.808C74.0123 15.488 74.4443 15.04 74.7643 14.464C75.0843 13.872 75.2443 13.168 75.2443 12.352Z" fill="url(#paint4_linear)"/>
<path d="M86.9979 19.216C85.9099 19.216 84.9339 19.024 84.0699 18.64C83.2059 18.24 82.5179 17.704 82.0059 17.032C81.5099 16.36 81.2379 15.616 81.1899 14.8H84.5739C84.6379 15.312 84.8859 15.736 85.3179 16.072C85.7659 16.408 86.3179 16.576 86.9739 16.576C87.6139 16.576 88.1099 16.448 88.4619 16.192C88.8299 15.936 89.0139 15.608 89.0139 15.208C89.0139 14.776 88.7899 14.456 88.3419 14.248C87.9099 14.024 87.2139 13.784 86.2539 13.528C85.2619 13.288 84.4459 13.04 83.8059 12.784C83.1819 12.528 82.6379 12.136 82.1739 11.608C81.7259 11.08 81.5019 10.368 81.5019 9.47202C81.5019 8.73602 81.7099 8.06402 82.1259 7.45602C82.5579 6.84802 83.1659 6.36802 83.9499 6.01602C84.7499 5.66402 85.6859 5.48802 86.7579 5.48802C88.3419 5.48802 89.6059 5.88802 90.5499 6.68802C91.4939 7.47202 92.0139 8.53602 92.1099 9.88002H88.8939C88.8459 9.35202 88.6219 8.93602 88.2219 8.63202C87.8379 8.31202 87.3179 8.15202 86.6619 8.15202C86.0539 8.15202 85.5819 8.26402 85.2459 8.48802C84.9259 8.71202 84.7659 9.02402 84.7659 9.42402C84.7659 9.87202 84.9899 10.216 85.4379 10.456C85.8859 10.68 86.5819 10.912 87.5259 11.152C88.4859 11.392 89.2779 11.64 89.9019 11.896C90.5259 12.152 91.0619 12.552 91.5099 13.096C91.9739 13.624 92.2139 14.328 92.2299 15.208C92.2299 15.976 92.0139 16.664 91.5819 17.272C91.1659 17.88 90.5579 18.36 89.7579 18.712C88.9739 19.048 88.0539 19.216 86.9979 19.216Z" fill="url(#paint5_linear)"/>
<path d="M98.348 7.62402C98.78 7.01602 99.372 6.51202 100.124 6.11202C100.892 5.69602 101.764 5.48802 102.74 5.48802C103.876 5.48802 104.9 5.76802 105.812 6.32802C106.74 6.88802 107.468 7.68802 107.996 8.72802C108.54 9.75202 108.812 10.944 108.812 12.304C108.812 13.664 108.54 14.872 107.996 15.928C107.468 16.968 106.74 17.776 105.812 18.352C104.9 18.928 103.876 19.216 102.74 19.216C101.764 19.216 100.9 19.016 100.148 18.616C99.412 18.216 98.812 17.712 98.348 17.104V25.336H94.988V5.70402H98.348V7.62402ZM105.38 12.304C105.38 11.504 105.212 10.816 104.876 10.24C104.556 9.64802 104.124 9.20002 103.58 8.89602C103.052 8.59202 102.476 8.44002 101.852 8.44002C101.244 8.44002 100.668 8.60002 100.124 8.92002C99.596 9.22402 99.164 9.67202 98.828 10.264C98.508 10.856 98.348 11.552 98.348 12.352C98.348 13.152 98.508 13.848 98.828 14.44C99.164 15.032 99.596 15.488 100.124 15.808C100.668 16.112 101.244 16.264 101.852 16.264C102.476 16.264 103.052 16.104 103.58 15.784C104.124 15.464 104.556 15.008 104.876 14.416C105.212 13.824 105.38 13.12 105.38 12.304Z" fill="url(#paint6_linear)"/>
<path d="M123.806 5.70402V19H120.422V17.32C119.99 17.896 119.422 18.352 118.718 18.688C118.03 19.008 117.278 19.168 116.462 19.168C115.422 19.168 114.502 18.952 113.702 18.52C112.902 18.072 112.27 17.424 111.806 16.576C111.358 15.712 111.134 14.688 111.134 13.504V5.70402H114.494V13.024C114.494 14.08 114.758 14.896 115.286 15.472C115.814 16.032 116.534 16.312 117.446 16.312C118.374 16.312 119.102 16.032 119.63 15.472C120.158 14.896 120.422 14.08 120.422 13.024V5.70402H123.806Z" fill="url(#paint7_linear)"/>
<path d="M131.033 8.46402V14.896C131.033 15.344 131.137 15.672 131.345 15.88C131.569 16.072 131.937 16.168 132.449 16.168H134.009V19H131.897C129.065 19 127.649 17.624 127.649 14.872V8.46402H126.065V5.70402H127.649V2.41602H131.033V5.70402H134.009V8.46402H131.033Z" fill="url(#paint8_linear)"/>
<path d="M139.786 7.76802C140.218 7.06402 140.778 6.51202 141.466 6.11202C142.17 5.71202 142.97 5.51202 143.866 5.51202V9.04002H142.978C141.922 9.04002 141.122 9.28802 140.578 9.78402C140.05 10.28 139.786 11.144 139.786 12.376V19H136.426V5.70402H139.786V7.76802Z" fill="url(#paint9_linear)"/>
<path d="M145.265 12.304C145.265 10.96 145.529 9.76802 146.057 8.72802C146.601 7.68802 147.329 6.88802 148.241 6.32802C149.169 5.76802 150.201 5.48802 151.337 5.48802C152.329 5.48802 153.193 5.68802 153.929 6.08802C154.681 6.48802 155.281 6.99202 155.729 7.60002V5.70402H159.113V19H155.729V17.056C155.297 17.68 154.697 18.2 153.929 18.616C153.177 19.016 152.305 19.216 151.313 19.216C150.193 19.216 149.169 18.928 148.241 18.352C147.329 17.776 146.601 16.968 146.057 15.928C145.529 14.872 145.265 13.664 145.265 12.304ZM155.729 12.352C155.729 11.536 155.569 10.84 155.249 10.264C154.929 9.67202 154.497 9.22402 153.953 8.92002C153.409 8.60002 152.825 8.44002 152.201 8.44002C151.577 8.44002 151.001 8.59202 150.473 8.89602C149.945 9.20002 149.513 9.64802 149.177 10.24C148.857 10.816 148.697 11.504 148.697 12.304C148.697 13.104 148.857 13.808 149.177 14.416C149.513 15.008 149.945 15.464 150.473 15.784C151.017 16.104 151.593 16.264 152.201 16.264C152.825 16.264 153.409 16.112 153.953 15.808C154.497 15.488 154.929 15.04 155.249 14.464C155.569 13.872 155.729 13.168 155.729 12.352Z" fill="url(#paint10_linear)"/>
<path d="M163.882 19.168C163.274 19.168 162.77 18.984 162.37 18.616C161.986 18.232 161.794 17.76 161.794 17.2C161.794 16.64 161.986 16.176 162.37 15.808C162.77 15.424 163.274 15.232 163.882 15.232C164.474 15.232 164.962 15.424 165.346 15.808C165.73 16.176 165.922 16.64 165.922 17.2C165.922 17.76 165.73 18.232 165.346 18.616C164.962 18.984 164.474 19.168 163.882 19.168Z" fill="url(#paint11_linear)"/>
<defs>
<linearGradient id="paint0_linear" x1="0.819335" y1="12.76" x2="165.922" y2="12.76" gradientUnits="userSpaceOnUse">
<stop stop-color="#FF2D46"/>
<stop offset="0.341417" stop-color="#FFB800"/>
<stop offset="0.700699" stop-color="#ECECEC"/>
<stop offset="1" stop-color="#00B2FF"/>
</linearGradient>
<linearGradient id="paint1_linear" x1="0.819335" y1="12.76" x2="165.922" y2="12.76" gradientUnits="userSpaceOnUse">
<stop stop-color="#FF2D46"/>
<stop offset="0.341417" stop-color="#FFB800"/>
<stop offset="0.700699" stop-color="#ECECEC"/>
<stop offset="1" stop-color="#00B2FF"/>
</linearGradient>
<linearGradient id="paint2_linear" x1="0.819335" y1="12.76" x2="165.922" y2="12.76" gradientUnits="userSpaceOnUse">
<stop stop-color="#FF2D46"/>
<stop offset="0.341417" stop-color="#FFB800"/>
<stop offset="0.700699" stop-color="#ECECEC"/>
<stop offset="1" stop-color="#00B2FF"/>
</linearGradient>
<linearGradient id="paint3_linear" x1="0.819335" y1="12.76" x2="165.922" y2="12.76" gradientUnits="userSpaceOnUse">
<stop stop-color="#FF2D46"/>
<stop offset="0.341417" stop-color="#FFB800"/>
<stop offset="0.700699" stop-color="#ECECEC"/>
<stop offset="1" stop-color="#00B2FF"/>
</linearGradient>
<linearGradient id="paint4_linear" x1="0.819335" y1="12.76" x2="165.922" y2="12.76" gradientUnits="userSpaceOnUse">
<stop stop-color="#FF2D46"/>
<stop offset="0.341417" stop-color="#FFB800"/>
<stop offset="0.700699" stop-color="#ECECEC"/>
<stop offset="1" stop-color="#00B2FF"/>
</linearGradient>
<linearGradient id="paint5_linear" x1="0.819335" y1="12.76" x2="165.922" y2="12.76" gradientUnits="userSpaceOnUse">
<stop stop-color="#FF2D46"/>
<stop offset="0.341417" stop-color="#FFB800"/>
<stop offset="0.700699" stop-color="#ECECEC"/>
<stop offset="1" stop-color="#00B2FF"/>
</linearGradient>
<linearGradient id="paint6_linear" x1="0.819335" y1="12.76" x2="165.922" y2="12.76" gradientUnits="userSpaceOnUse">
<stop stop-color="#FF2D46"/>
<stop offset="0.341417" stop-color="#FFB800"/>
<stop offset="0.700699" stop-color="#ECECEC"/>
<stop offset="1" stop-color="#00B2FF"/>
</linearGradient>
<linearGradient id="paint7_linear" x1="0.819335" y1="12.76" x2="165.922" y2="12.76" gradientUnits="userSpaceOnUse">
<stop stop-color="#FF2D46"/>
<stop offset="0.341417" stop-color="#FFB800"/>
<stop offset="0.700699" stop-color="#ECECEC"/>
<stop offset="1" stop-color="#00B2FF"/>
</linearGradient>
<linearGradient id="paint8_linear" x1="0.819335" y1="12.76" x2="165.922" y2="12.76" gradientUnits="userSpaceOnUse">
<stop stop-color="#FF2D46"/>
<stop offset="0.341417" stop-color="#FFB800"/>
<stop offset="0.700699" stop-color="#ECECEC"/>
<stop offset="1" stop-color="#00B2FF"/>
</linearGradient>
<linearGradient id="paint9_linear" x1="0.819335" y1="12.76" x2="165.922" y2="12.76" gradientUnits="userSpaceOnUse">
<stop stop-color="#FF2D46"/>
<stop offset="0.341417" stop-color="#FFB800"/>
<stop offset="0.700699" stop-color="#ECECEC"/>
<stop offset="1" stop-color="#00B2FF"/>
</linearGradient>
<linearGradient id="paint10_linear" x1="0.819335" y1="12.76" x2="165.922" y2="12.76" gradientUnits="userSpaceOnUse">
<stop stop-color="#FF2D46"/>
<stop offset="0.341417" stop-color="#FFB800"/>
<stop offset="0.700699" stop-color="#ECECEC"/>
<stop offset="1" stop-color="#00B2FF"/>
</linearGradient>
<linearGradient id="paint11_linear" x1="0.819335" y1="12.76" x2="165.922" y2="12.76" gradientUnits="userSpaceOnUse">
<stop stop-color="#FF2D46"/>
<stop offset="0.341417" stop-color="#FFB800"/>
<stop offset="0.700699" stop-color="#ECECEC"/>
<stop offset="1" stop-color="#00B2FF"/>
</linearGradient>
</defs>
</svg>
