<svg width="56" height="56" viewBox="0 0 56 56" fill="none" xmlns="http://www.w3.org/2000/svg">
<path d="M8 27.0199C8 25.6813 8.27006 24.494 8.81017 23.4582C9.36665 22.4223 10.1195 21.6255 11.0688 21.0677C12.0181 20.51 13.0738 20.2311 14.2358 20.2311C15.1197 20.2311 15.9626 20.4223 16.7646 20.8048C17.5665 21.1713 18.2049 21.6653 18.6795 22.2869V16H22.1657V33.6892H18.6795V31.7291C18.254 32.3825 17.6566 32.9084 16.8873 33.3068C16.1181 33.7052 15.2261 33.9044 14.2113 33.9044C13.0656 33.9044 12.0181 33.6175 11.0688 33.0438C10.1195 32.4701 9.36665 31.6653 8.81017 30.6295C8.27006 29.5777 8 28.3745 8 27.0199ZM18.7041 27.0677C18.7041 26.255 18.5404 25.5618 18.213 24.988C17.8857 24.3984 17.4438 23.9522 16.8873 23.6494C16.3308 23.3307 15.7334 23.1713 15.0951 23.1713C14.4568 23.1713 13.8676 23.3227 13.3275 23.6255C12.7874 23.9283 12.3455 24.3745 12.0017 24.9641C11.6744 25.5378 11.5107 26.2231 11.5107 27.0199C11.5107 27.8167 11.6744 28.5179 12.0017 29.1235C12.3455 29.7131 12.7874 30.1673 13.3275 30.4861C13.884 30.8048 14.4732 30.9641 15.0951 30.9641C15.7334 30.9641 16.3308 30.8127 16.8873 30.51C17.4438 30.1912 17.8857 29.745 18.213 29.1713C18.5404 28.5817 18.7041 27.8805 18.7041 27.0677Z" fill="url(#paint0_linear)"/>
<path d="M30.0226 22.3586C30.4645 21.753 31.0701 21.251 31.8393 20.8526C32.6249 20.4382 33.5169 20.2311 34.5153 20.2311C35.6774 20.2311 36.7249 20.51 37.6578 21.0677C38.6071 21.6255 39.3518 22.4223 39.8919 23.4582C40.4484 24.4781 40.7266 25.6653 40.7266 27.0199C40.7266 28.3745 40.4484 29.5777 39.8919 30.6295C39.3518 31.6653 38.6071 32.4701 37.6578 33.0438C36.7249 33.6175 35.6774 33.9044 34.5153 33.9044C33.5169 33.9044 32.6331 33.7052 31.8639 33.3068C31.111 32.9084 30.4972 32.4064 30.0226 31.8008V40H26.5855V20.4462H30.0226V22.3586ZM37.2159 27.0199C37.2159 26.2231 37.044 25.5378 36.7003 24.9641C36.373 24.3745 35.9311 23.9283 35.3746 23.6255C34.8345 23.3227 34.2453 23.1713 33.607 23.1713C32.985 23.1713 32.3958 23.3307 31.8393 23.6494C31.2992 23.9522 30.8573 24.3984 30.5136 24.988C30.1863 25.5777 30.0226 26.2709 30.0226 27.0677C30.0226 27.8645 30.1863 28.5578 30.5136 29.1474C30.8573 29.7371 31.2992 30.1912 31.8393 30.51C32.3958 30.8127 32.985 30.9641 33.607 30.9641C34.2453 30.9641 34.8345 30.8048 35.3746 30.4861C35.9311 30.1673 36.373 29.7131 36.7003 29.1235C37.044 28.5339 37.2159 27.8327 37.2159 27.0199Z" fill="url(#paint1_linear)"/>
<path d="M45.9132 33.8566C45.2913 33.8566 44.7757 33.6733 44.3665 33.3068C43.9737 32.9243 43.7773 32.4542 43.7773 31.8964C43.7773 31.3386 43.9737 30.8765 44.3665 30.51C44.7757 30.1275 45.2913 29.9363 45.9132 29.9363C46.5188 29.9363 47.018 30.1275 47.4108 30.51C47.8036 30.8765 48 31.3386 48 31.8964C48 32.4542 47.8036 32.9243 47.4108 33.3068C47.018 33.6733 46.5188 33.8566 45.9132 33.8566Z" fill="url(#paint2_linear)"/>
<defs>
<linearGradient id="paint0_linear" x1="8" y1="28" x2="48" y2="28" gradientUnits="userSpaceOnUse">
<stop stop-color="#FF2D46"/>
<stop offset="0.341417" stop-color="#FFB800"/>
<stop offset="0.700699" stop-color="#ECECEC"/>
<stop offset="1" stop-color="#00B2FF"/>
</linearGradient>
<linearGradient id="paint1_linear" x1="8" y1="28" x2="48" y2="28" gradientUnits="userSpaceOnUse">
<stop stop-color="#FF2D46"/>
<stop offset="0.341417" stop-color="#FFB800"/>
<stop offset="0.700699" stop-color="#ECECEC"/>
<stop offset="1" stop-color="#00B2FF"/>
</linearGradient>
<linearGradient id="paint2_linear" x1="8" y1="28" x2="48" y2="28" gradientUnits="userSpaceOnUse">
<stop stop-color="#FF2D46"/>
<stop offset="0.341417" stop-color="#FFB800"/>
<stop offset="0.700699" stop-color="#ECECEC"/>
<stop offset="1" stop-color="#00B2FF"/>
</linearGradient>
</defs>
</svg>
